<svg width="36" height="35" viewBox="0 0 36 35" fill="none" xmlns="http://www.w3.org/2000/svg">
<g clip-path="url(#clip0_29_56)">
<g filter="url(#filter0_d_29_56)">
<path d="M31.0104 8.02083C32.074 8.02083 33.0941 7.59831 33.8462 6.84621C34.5983 6.09411 35.0208 5.07405 35.0208 4.01042C35.0208 2.94679 34.5983 1.92672 33.8462 1.17462C33.0941 0.422525 32.074 0 31.0104 0C29.9468 0 28.9267 0.422525 28.1746 1.17462C27.4225 1.92672 27 2.94679 27 4.01042C27 5.07405 27.4225 6.09411 28.1746 6.84621C28.9267 7.59831 29.9468 8.02083 31.0104 8.02083Z" fill="#B51212"/>
<path d="M33.4927 6.49266C32.8343 7.15099 31.9414 7.52083 31.0104 7.52083C30.0794 7.52083 29.1865 7.15099 28.5282 6.49266C27.8698 5.83433 27.5 4.94144 27.5 4.01042C27.5 3.0794 27.8698 2.18651 28.5282 1.52818C29.1865 0.869847 30.0794 0.5 31.0104 0.5C31.9414 0.5 32.8343 0.869847 33.4927 1.52818C34.151 2.18651 34.5208 3.0794 34.5208 4.01042C34.5208 4.94144 34.151 5.83433 33.4927 6.49266Z" stroke="#B51212" stroke-linejoin="round"/>
</g>
<path d="M13.5925 28.5129L13.5925 28.5128C13.5361 28.4352 13.4184 28.3354 13.2556 28.254C13.0936 28.173 12.9372 28.1354 12.8302 28.1354H10.6427C6.3416 28.1354 2.85107 24.6449 2.85107 20.3437V10.2083C2.85107 5.90717 6.3416 2.41664 10.6427 2.41664H22.0895H22.0907L13.5925 28.5129ZM13.5925 28.5129L13.5976 28.5197M13.5925 28.5129L13.5976 28.5197M13.5976 28.5197L15.7844 31.4208L13.5976 28.5197ZM12.1011 17C11.5638 17 11.1427 16.5709 11.1427 16.0416C11.1427 15.5124 11.5638 15.0833 12.1011 15.0833C12.627 15.0833 13.0594 15.5157 13.0594 16.0416C13.0594 16.5709 12.6383 17 12.1011 17ZM17.9344 17C17.3971 17 16.9761 16.5709 16.9761 16.0416C16.9761 15.5124 17.3971 15.0833 17.9344 15.0833C18.4603 15.0833 18.8927 15.5157 18.8927 16.0416C18.8927 16.5709 18.4717 17 17.9344 17ZM23.7677 17C23.2305 17 22.8094 16.5709 22.8094 16.0416C22.8094 15.5124 23.2305 15.0833 23.7677 15.0833C24.2937 15.0833 24.7261 15.5157 24.7261 16.0416C24.7261 16.5709 24.305 17 23.7677 17Z" stroke="#7C1111"/>
</g>
<defs>
<filter id="filter0_d_29_56" x="23" y="0" width="16.0209" height="16.0208" filterUnits="userSpaceOnUse" color-interpolation-filters="sRGB">
<feFlood flood-opacity="0" result="BackgroundImageFix"/>
<feColorMatrix in="SourceAlpha" type="matrix" values="0 0 0 0 0 0 0 0 0 0 0 0 0 0 0 0 0 0 127 0" result="hardAlpha"/>
<feOffset dy="4"/>
<feGaussianBlur stdDeviation="2"/>
<feComposite in2="hardAlpha" operator="out"/>
<feColorMatrix type="matrix" values="0 0 0 0 0 0 0 0 0 0 0 0 0 0 0 0 0 0 0.25 0"/>
<feBlend mode="normal" in2="BackgroundImageFix" result="effect1_dropShadow_29_56"/>
<feBlend mode="normal" in="SourceGraphic" in2="effect1_dropShadow_29_56" result="shape"/>
</filter>
<clipPath id="clip0_29_56">
<rect width="35" height="35" fill="white" transform="translate(0.434448)"/>
</clipPath>
</defs>
</svg>
