<svg width="23" height="31" viewBox="0 0 23 31" fill="none" xmlns="http://www.w3.org/2000/svg">
<path d="M21.9179 19.1314L20.4595 16.7105C20.1533 16.171 19.8762 15.1501 19.8762 14.5522V10.8626C19.8745 9.23518 19.412 7.64149 18.5422 6.26592C17.6725 4.89036 16.4311 3.78916 14.9616 3.08971C14.5866 2.42375 14.0395 1.87076 13.3776 1.48852C12.7158 1.10628 11.9634 0.908824 11.1991 0.916797C9.60954 0.916797 8.18037 1.77721 7.42204 3.13346C4.57829 4.54805 2.60954 7.4793 2.60954 10.8626V14.5522C2.60954 15.1501 2.33245 16.171 2.0262 16.696L0.553286 19.1314C-0.0300474 20.1085 -0.161298 21.1876 0.203286 22.1793C0.553286 23.1564 1.38454 23.9147 2.4637 24.2793C5.29287 25.2418 8.26787 25.7085 11.2429 25.7085C14.2179 25.7085 17.1929 25.2418 20.022 24.2939C21.0429 23.9585 21.8304 23.1855 22.2095 22.1793C22.5887 21.173 22.4866 20.0647 21.9179 19.1314ZM15.3408 27.1814C15.0341 28.0304 14.4735 28.7643 13.7351 29.2835C12.9967 29.8028 12.1164 30.0821 11.2137 30.0835C10.0616 30.0835 8.92412 29.6168 8.12204 28.7855C7.65537 28.348 7.30537 27.7647 7.1012 27.1668C7.29079 27.196 7.48037 27.2105 7.68454 27.2397C8.01995 27.2835 8.36995 27.3272 8.71995 27.3564C9.5512 27.4293 10.397 27.473 11.2429 27.473C12.0741 27.473 12.9054 27.4293 13.722 27.3564C14.0283 27.3272 14.3345 27.3126 14.6262 27.2689L15.3408 27.1814Z" fill="#7C1111"/>
</svg>
