<svg width="30" height="30" viewBox="0 0 30 30" fill="none" xmlns="http://www.w3.org/2000/svg">
<g clip-path="url(#clip0_100_210)">
<path d="M7.5 1.87801V28.128C7.5 29.088 6.585 29.853 5.655 29.598C2.055 28.578 0 25.638 0 21.288V8.71801C0 4.36801 2.055 1.42801 5.655 0.408007C6.585 0.153007 7.5 0.903007 7.5 1.87801ZM15.705 18.5565C15.4345 18.5565 15.175 18.664 14.9838 18.8553C14.7925 19.0465 14.685 19.306 14.685 19.5765C14.685 20.1315 15.15 20.5965 15.705 20.5965C16.275 20.5965 16.74 20.1315 16.74 19.5765C16.7361 19.3046 16.6253 19.0452 16.4316 18.8543C16.2379 18.6635 15.9769 18.5565 15.705 18.5565ZM23.277 17.175C22.707 17.175 22.242 17.64 22.242 18.21C22.242 18.78 22.707 19.23 23.277 19.23C23.847 19.23 24.312 18.765 24.312 18.21C24.312 17.655 23.847 17.175 23.277 17.175Z" fill="#5D5959"/>
<path d="M21.285 0H11.25C10.425 0 9.75 0.675 9.75 1.5V28.5C9.75 29.325 10.425 30 11.25 30H21.285C26.1 30 30 26.1 30 21.285V8.715C30 3.9 26.1 0 21.285 0ZM26.4 11.61V18.21C26.4 18.225 26.385 18.24 26.385 18.255C26.3716 19.0702 26.0388 19.8475 25.4581 20.4198C24.8774 20.9921 24.0953 21.3135 23.28 21.315C21.57 21.315 20.175 19.92 20.175 18.21C20.175 16.5 21.57 15.105 23.28 15.105C23.64 15.105 23.985 15.18 24.315 15.3V12.975L18.81 14.475V19.605C18.81 19.62 18.795 19.635 18.795 19.65C18.7816 20.4652 18.4488 21.2425 17.8681 21.8148C17.2874 22.3871 16.5053 22.7085 15.69 22.71C13.98 22.71 12.585 21.315 12.585 19.605C12.585 17.895 13.98 16.5 15.69 16.5C16.05 16.5 16.395 16.575 16.725 16.695V11.25C16.725 9.96 17.52 8.91 18.765 8.595L22.89 7.455C24.18 7.11 24.975 7.455 25.425 7.8C26.07 8.295 26.385 9.075 26.385 10.125V11.61H26.4Z" fill="#5D5959"/>
</g>
<defs>
<clipPath id="clip0_100_210">
<rect width="30" height="30" fill="white"/>
</clipPath>
</defs>
</svg>
