<svg width="30" height="30" viewBox="0 0 30 30" fill="none" xmlns="http://www.w3.org/2000/svg">
<path d="M27.0409 9.01502L18.1091 1.15503C16.3636 -0.374972 13.6364 -0.389972 11.9045 1.14003L2.97273 9.01502C1.69091 10.14 0.913634 12.39 1.18636 14.16L2.90454 25.47C3.3 28.005 5.44091 30 7.77272 30H22.2273C24.5318 30 26.7136 27.96 27.1091 25.455L28.8273 14.145C29.0727 12.39 28.2955 10.14 27.0409 9.01502ZM16.0227 24C16.0227 24.615 15.5591 25.125 15 25.125C14.4409 25.125 13.9773 24.615 13.9773 24V19.5C13.9773 18.885 14.4409 18.375 15 18.375C15.5591 18.375 16.0227 18.885 16.0227 19.5V24Z" fill="#7C1111"/>
</svg>
