<svg width="31" height="31" viewBox="0 0 31 31" fill="none" xmlns="http://www.w3.org/2000/svg">
<path d="M28.0537 8.11037V9.62162C28.0537 10.8875 27.55 11.9725 26.6587 12.6054C26.1033 13.0187 25.4187 13.2125 24.7083 13.2125C24.2691 13.2125 23.83 13.1479 23.3779 12.9929L16.4287 10.6808V23.2487C16.4287 26.6329 13.6775 29.3841 10.2933 29.3841C6.90913 29.3841 4.15788 26.6329 4.15788 23.2487C4.15788 19.8645 6.90913 17.1133 10.2933 17.1133C11.9208 17.1133 13.3933 17.7591 14.4912 18.7925V5.16537C14.4912 3.91245 15.0079 2.82745 15.8991 2.18162C16.7904 1.5487 17.9787 1.40662 19.167 1.79412L24.8762 3.70578C26.6329 4.28703 28.0537 6.26328 28.0537 8.11037Z" fill="#7C1111"/>
</svg>
