<svg width="30" height="30" viewBox="0 0 30 30" fill="none" xmlns="http://www.w3.org/2000/svg">
<g clip-path="url(#clip0_100_207)">
<path d="M24 6.0714H6C5.385 6.0714 4.875 5.58569 4.875 4.99997C4.875 4.41426 5.385 3.92855 6 3.92855H24C24.615 3.92855 25.125 4.41426 25.125 4.99997C25.125 5.58569 24.615 6.0714 24 6.0714ZM19.5 2.49997H10.5C9.885 2.49997 9.375 2.01426 9.375 1.42855C9.375 0.842831 9.885 0.357117 10.5 0.357117H19.5C20.115 0.357117 20.625 0.842831 20.625 1.42855C20.625 2.01426 20.115 2.49997 19.5 2.49997ZM17.865 21.7285C17.355 21.7285 16.935 22.1285 16.935 22.6143C16.935 23.1 17.355 23.5 17.865 23.5C18.375 23.5 18.795 23.1 18.795 22.6143C18.795 22.1285 18.375 21.7285 17.865 21.7285ZM11.265 23.9128C11.265 23.4271 10.845 23.0414 10.335 23.0414C9.825 23.0414 9.405 23.4414 9.405 23.9271C9.405 24.4128 9.825 24.8128 10.335 24.8128C10.845 24.7985 11.265 24.3985 11.265 23.9128Z" fill="#5D5959"/>
<path d="M24 8.57141H6C2.7 8.57141 0 11.1428 0 14.2857V24.2857C0 27.4286 2.7 30 6 30H24C27.3 30 30 27.4286 30 24.2857V14.2857C30 11.1428 27.3 8.57141 24 8.57141ZM21.045 16.3714V22.6143C21.045 22.6428 21.03 22.6571 21.03 22.6857C21.0097 23.4738 20.6679 24.2233 20.077 24.7754C19.4862 25.3275 18.6927 25.6386 17.865 25.6428C17.0385 25.6187 16.2544 25.289 15.6787 24.7237C15.1031 24.1583 14.7812 23.4018 14.7812 22.6143C14.7812 21.8268 15.1031 21.0702 15.6787 20.5049C16.2544 19.9396 17.0385 19.6099 17.865 19.5857C18.195 19.5857 18.495 19.6428 18.795 19.7286V17.7714L13.515 19.1428V23.9143C13.4896 24.7014 13.1434 25.4482 12.5499 25.9964C11.9563 26.5446 11.1619 26.8512 10.335 26.8512C9.50813 26.8512 8.71374 26.5446 8.12015 25.9964C7.52655 25.4482 7.18039 24.7014 7.155 23.9143C7.155 22.2428 8.58 20.8857 10.335 20.8857C10.665 20.8857 10.965 20.9428 11.265 21.0286V16.0286C11.265 14.7571 12.09 13.7286 13.365 13.4143L17.46 12.3428C18.78 12.0143 19.59 12.3428 20.055 12.6857C20.505 13.0143 21.045 13.6857 21.045 14.9571V16.3714Z" fill="#5D5959"/>
</g>
<defs>
<clipPath id="clip0_100_207">
<rect width="30" height="30" fill="white"/>
</clipPath>
</defs>
</svg>
