<svg width="30" height="30" viewBox="0 0 30 30" fill="none" xmlns="http://www.w3.org/2000/svg">
<g clip-path="url(#clip0_100_201)">
<path d="M29.8167 4.76852V21.7185C29.8167 24.6885 27.1333 27.1035 23.8333 27.1035C22.2478 27.0996 20.7285 26.5309 19.6073 25.5219C18.4862 24.5129 17.8544 23.1455 17.85 21.7185C17.85 18.7635 20.55 16.3485 23.8333 16.3485C25.2333 16.3485 26.4833 16.7835 27.5 17.5035V8.57852L12.15 12.5085V24.6135C12.1456 26.0405 11.5138 27.4079 10.3927 28.4169C9.27153 29.4259 7.75219 29.9946 6.16667 29.9985C2.86667 29.9985 0.183334 27.5835 0.183334 24.6135C0.183334 21.6585 2.86667 19.2435 6.16667 19.2435C7.55 19.2435 8.8 19.6785 9.81667 20.3835V7.12352C9.81667 4.91852 11.3 3.20852 13.65 2.63852L23.2833 0.268517C25.2333 -0.211483 26.8833 -0.0464825 28.05 0.763517C29.2333 1.55852 29.8167 2.90852 29.8167 4.76852Z" fill="#5D5959"/>
</g>
<defs>
<clipPath id="clip0_100_201">
<rect width="30" height="30" fill="white"/>
</clipPath>
</defs>
</svg>
