<svg width="30" height="30" viewBox="0 0 30 30" fill="none" xmlns="http://www.w3.org/2000/svg">
<g clip-path="url(#clip0_100_205)">
<path d="M1.5 21.75C0.885 21.75 0.375 21.24 0.375 20.625V9.375C0.375 8.76 0.885 8.25 1.5 8.25C2.115 8.25 2.625 8.76 2.625 9.375V20.625C2.625 21.24 2.115 21.75 1.5 21.75ZM8.25 25.5C7.635 25.5 7.125 24.99 7.125 24.375V5.625C7.125 5.01 7.635 4.5 8.25 4.5C8.865 4.5 9.375 5.01 9.375 5.625V24.375C9.375 24.99 8.865 25.5 8.25 25.5ZM15 29.25C14.385 29.25 13.875 28.74 13.875 28.125V1.875C13.875 1.26 14.385 0.75 15 0.75C15.615 0.75 16.125 1.26 16.125 1.875V28.125C16.125 28.74 15.615 29.25 15 29.25ZM21.75 25.5C21.135 25.5 20.625 24.99 20.625 24.375V5.625C20.625 5.01 21.135 4.5 21.75 4.5C22.365 4.5 22.875 5.01 22.875 5.625V24.375C22.875 24.99 22.365 25.5 21.75 25.5ZM28.5 21.75C27.885 21.75 27.375 21.24 27.375 20.625V9.375C27.375 8.76 27.885 8.25 28.5 8.25C29.115 8.25 29.625 8.76 29.625 9.375V20.625C29.625 21.24 29.115 21.75 28.5 21.75Z" fill="#5D5959"/>
</g>
<defs>
<clipPath id="clip0_100_205">
<rect width="30" height="30" fill="white"/>
</clipPath>
</defs>
</svg>
