<svg width="30" height="30" viewBox="0 0 30 30" fill="none" xmlns="http://www.w3.org/2000/svg">
<g clip-path="url(#clip0_100_203)">
<path d="M15 0C6.735 0 0 6.735 0 15C0 23.265 6.735 30 15 30C23.265 30 30 23.265 30 15C30 6.735 23.265 0 15 0ZM21.525 20.355C21.4499 20.4828 21.3501 20.5945 21.2315 20.6834C21.1129 20.7724 20.9778 20.8368 20.8341 20.8731C20.6903 20.9094 20.5408 20.9168 20.3942 20.8948C20.2476 20.8728 20.1068 20.8219 19.98 20.745L15.33 17.97C14.175 17.28 13.32 15.765 13.32 14.43V8.28C13.32 7.665 13.83 7.155 14.445 7.155C15.06 7.155 15.57 7.665 15.57 8.28V14.43C15.57 14.97 16.02 15.765 16.485 16.035L21.135 18.81C21.675 19.125 21.855 19.815 21.525 20.355Z" fill="#5D5959"/>
</g>
<defs>
<clipPath id="clip0_100_203">
<rect width="30" height="30" fill="white"/>
</clipPath>
</defs>
</svg>
